<?xml version="1.0" encoding="UTF-8"?>
<svg id="Camada_1" xmlns="http://www.w3.org/2000/svg" version="1.1" viewBox="0 0 1080 1080">
  <!-- Generator: Adobe Illustrator 30.0.0, SVG Export Plug-In . SVG Version: 2.1.1 Build 123)  -->
  <defs>
    <style>
      .st0 {
        fill: #1464e6;
      }
    </style>
  </defs>
  <g>
    <path class="st0" d="M287.61,869.58c-47.6,0-85.03,36.59-85.03,82.87s37.43,82.87,85.03,82.87,85.04-36.59,85.04-82.87-37.43-82.87-85.04-82.87ZM287.61,1006.04c-29.43,0-52.58-23.25-52.58-53.59s22.5-53.59,52.58-53.59,52.58,23.25,52.58,53.59-22.5,53.59-52.58,53.59Z"/>
    <path class="st0" d="M145.03,975.05h33.32c-7.36,32.71-35.7,60.26-78.11,60.26-49.11,0-83.53-36.8-83.53-82.65s35.06-83.08,85.04-83.08c45.22,0,70.1,29.7,75.72,60.05h-32.89c-4.98-17.44-19.9-30.78-43.92-30.78-30.29,0-51.72,22.82-51.72,53.59s21.64,53.59,52.15,53.59c22.73,0,38.09-12.27,43.93-30.99Z"/>
    <path class="st0" d="M847.59,873.46v20.44c-11.68-15.06-29.43-24.32-52.36-24.32-45.43,0-80.28,35.73-80.28,82.87s34.84,82.87,80.49,82.87c22.93,0,40.47-9.26,52.36-24.32v20.44h31.81v-157.98h-32.02ZM796.74,1006.9c-28.34,0-49.54-23.46-49.54-54.45s21.2-54.45,49.54-54.45,49.99,23.46,49.99,54.45c.21,30.99-21.43,54.45-49.99,54.45Z"/>
    <path class="st0" d="M1067.42,937.37v95.78h-32.47v-88.89c0-26.91-13.84-42.83-36.56-42.83-27.7,0-47.38,19.37-47.38,57.47v74.46h-32.45v-157.76h31.81v21.96c12.77-17.65,29.86-25.82,52.79-25.82,39.59-.23,64.26,27.76,64.26,65.63Z"/>
    <path class="st0" d="M691.37,984.94c0,32.06-27.27,50.36-66.65,50.36s-63.4-19.37-68.37-50.36h32.02c4.98,15.5,16.02,23.46,36.79,23.46,22.07,0,33.75-7.96,33.75-20.66,0-9.69-6.06-15.5-20.99-18.51l-34.18-6.89c-27.91-5.81-43.93-21.31-43.93-44.12,0-27.56,26.61-48.43,65.56-48.43,42.2,0,61.88,23.03,64.92,49.07h-31.59c-3.46-12.91-13.63-22.39-33.97-22.39-21.63,0-31.59,8.82-31.59,19.58,0,8.82,5.41,14.84,20.34,17.86l37,7.96c25.94,5.38,40.88,20.44,40.88,43.04Z"/>
    <path class="st0" d="M497.28,972.24l.43-.21c22.5-6.89,36.34-23.89,36.34-46.28,0-27.77-21.64-52.31-59.51-52.31h-71.83v157.76h32.02v-53.15h30.5l35.49,53.16h37l-40.45-58.98ZM475.87,950.08h-40.9v-48.21h40.9c18.82,0,27.27,11.19,27.27,24.11.21,13.56-9.75,24.11-27.27,24.11Z"/>
  </g>
  <g>
    <path class="st0" d="M208.48,234.51h851.68c0,42.5-34.96,77.28-77.69,77.28H286.17v199.49h696.29c42.73,0,77.69,34.77,77.69,77.28H208.48V234.51Z"/>
    <path class="st0" d="M1066.47,701.57v77.28H211.89c-107.3,0-194.22-86.46-194.22-193.2V237.89c0-106.74,86.92-193.2,194.22-193.2h854.58v77.28H211.89c-64.1,0-116.54,51.68-116.54,115.92v347.76c0,64.24,52.43,115.92,116.54,115.92h854.58Z"/>
  </g>
</svg>