<?xml version="1.0" encoding="utf-8"?>
<!-- Generator: Adobe Illustrator 28.2.0, SVG Export Plug-In . SVG Version: 6.00 Build 0)  -->
<svg version="1.1" id="Camada_1" xmlns="http://www.w3.org/2000/svg" xmlns:xlink="http://www.w3.org/1999/xlink" x="0px" y="0px"
	 viewBox="0 0 1080 1080" style="enable-background:new 0 0 1080 1080;" xml:space="preserve">
<style type="text/css">
	.st0{fill:#1464E6;}
</style>
<g>
	<g>
		<g>
			<path class="st0" d="M205.96,893.42c-33.25,0-59.4,25.56-59.4,57.89c0,32.33,26.15,57.89,59.4,57.89
				c33.26,0,59.41-25.56,59.41-57.89C265.37,918.98,239.22,893.42,205.96,893.42z M205.96,988.75c-20.56,0-36.73-16.24-36.73-37.44
				c0-21.35,15.72-37.44,36.73-37.44c20.56,0,36.73,16.24,36.73,37.44C242.69,972.66,226.97,988.75,205.96,988.75z"/>
			<path class="st0" d="M106.35,967.1h23.28c-5.14,22.85-24.94,42.1-54.57,42.1c-34.31,0-58.35-25.71-58.35-57.74
				c0-32.18,24.49-58.04,59.41-58.04c31.59,0,48.97,20.75,52.9,41.95h-22.98c-3.48-12.18-13.9-21.5-30.68-21.5
				c-21.16,0-36.13,15.94-36.13,37.44c0,21.65,15.12,37.44,36.43,37.44C91.54,988.75,102.27,980.18,106.35,967.1z"/>
			<path class="st0" d="M597.15,896.13v14.28c-8.16-10.52-20.56-16.99-36.58-16.99c-31.74,0-56.08,24.96-56.08,57.89
				c0,32.93,24.34,57.89,56.23,57.89c16.02,0,28.27-6.47,36.58-16.99v14.28h22.22V896.13H597.15z M561.63,989.35
				c-19.8,0-34.61-16.39-34.61-38.04s14.81-38.04,34.61-38.04c19.95,0,34.92,16.39,34.92,38.04
				C596.7,972.96,581.58,989.35,561.63,989.35z"/>
			<path class="st0" d="M750.72,940.78v66.91h-22.68v-62.1c0-18.8-9.67-29.92-25.54-29.92c-19.35,0-33.1,13.53-33.1,40.15v52.02
				h-22.67V897.63h22.22v15.34c8.92-12.33,20.86-18.04,36.88-18.04C733.49,894.77,750.72,914.32,750.72,940.78z"/>
			<path class="st0" d="M488.02,974.01c0,22.4-19.05,35.18-46.56,35.18c-27.36,0-44.29-13.53-47.76-35.18h22.37
				c3.48,10.83,11.19,16.39,25.7,16.39c15.42,0,23.58-5.56,23.58-14.43c0-6.77-4.23-10.83-14.66-12.93l-23.88-4.81
				c-19.5-4.06-30.69-14.89-30.69-30.82c0-19.25,18.59-33.83,45.8-33.83c29.48,0,43.23,16.09,45.35,34.28h-22.07
				c-2.42-9.02-9.52-15.64-23.73-15.64c-15.11,0-22.07,6.16-22.07,13.68c0,6.16,3.78,10.37,14.21,12.48l25.85,5.56
				C477.58,947.7,488.02,958.22,488.02,974.01z"/>
			<path class="st0" d="M352.43,965.14l0.3-0.15c15.72-4.81,25.39-16.69,25.39-32.33c0-19.4-15.12-36.54-41.57-36.54h-50.18v110.21
				h22.37V969.2h21.31l24.79,37.14h25.85L352.43,965.14z M337.47,949.66H308.9v-33.68h28.57c13.15,0,19.05,7.82,19.05,16.84
				C356.67,942.29,349.71,949.66,337.47,949.66z"/>
		</g>
		<g>
			<path class="st0" d="M150.68,449.77h594.97c0,29.69-24.42,53.99-54.27,53.99H204.95v139.36h486.42
				c29.85,0,54.27,24.29,54.27,53.99H150.68V449.77z"/>
			<path class="st0" d="M750.06,776.05v53.99h-597c-74.96,0-135.68-60.4-135.68-134.97V452.13c0-74.57,60.72-134.97,135.68-134.97
				h597v53.99h-597c-44.78,0-81.41,36.1-81.41,80.98v242.94c0,44.88,36.63,80.98,81.41,80.98H750.06z"/>
		</g>
	</g>
	<path class="st0" d="M965.78,147.2h96.74c0.51-3.3,0.77-6.85,0.77-11.17c0-37.06-25.96-65.23-62.88-65.23
		c-27.75,0-52.95,15.74-74.84,46.7V73.35h-22.4v13.63c-12.2-11.5-26.46-16.18-41.25-16.18c-36.4,0-64.4,28.17-64.4,65.23
		c0,37.06,26.99,64.97,61.86,64.97c16.98,0,31.43-6.7,43.79-19.79v16.99h22.4v-26.65l-19.35-24.62
		c-13.49,21.07-28.51,32.24-45.57,32.24c-22.4,0-40.73-18.78-40.73-43.14c0-24.36,18.33-43.4,42-43.4
		c26.99,0,42.52,24.87,62.62,52.54c26.48,36.29,47.35,55.84,76.62,55.84c25.46,0,48.88-14.72,57.53-38.32h-26.48
		c-4.58,9.65-16.55,16.5-30.55,16.5c-19.93,0-36.49-12.84-58.5-46.73c17.37-26.29,36.25-39.82,57.23-39.82s36.4,13.7,39.97,31.98
		h-74.59v22.59L965.78,147.2z"/>
</g>
</svg>
